---
---
<svg xmlns="http://www.w3.org/2000/svg" width="512" height="512">
 <g>
   <rect fill="{{ site.theme_color }}" height="514" width="514" y="-1" x="-1"/>
 </g>
 <g>
  <path stroke="null" fill="#ffffff" d="m406.996965,106.871752c-3.383123,-7.578687 -13.049188,-7.881834 -17.096853,-0.727554c-18.728002,32.679298 -52.257166,53.050808 -90.55895,53.050808l-48.330327,0c-64.037683,0 -115.992785,52.141366 -115.992785,116.40863c0,4.244065 0.483303,8.306241 0.906194,12.429046c38.543436,-27.707679 94.183725,-51.231923 173.082984,-51.231923c5.316336,0 9.666065,4.365324 9.666065,9.700719s-4.349729,9.700719 -9.666065,9.700719c-151.878053,0 -216.278213,93.430052 -230.53566,128.534529c-3.987252,9.882608 0.724955,21.159694 10.572259,25.22187c9.907717,4.122806 21.144518,-0.666924 25.252596,-10.488903c0.906194,-2.182662 12.626298,-29.041528 43.436881,-54.930322c19.573782,26.616348 56.788134,52.020107 105.662177,46.80597c94.848267,-6.911762 161.604531,-92.278091 161.604531,-196.803341c0,-30.436006 -6.524594,-61.963344 -18.003047,-87.67025z"/>
 </g>
</svg>
